<svg width="30" height="25" viewBox="0 0 30 25" fill="none" xmlns="http://www.w3.org/2000/svg">
<path fill-rule="evenodd" clip-rule="evenodd" d="M3.65842 3.01937L3.65842 4.52897L2.43895 4.52897L2.43895 6.04447L1.21191 6.04447L1.21191 18.1272L2.43895 18.1272L2.43895 19.6506L3.65842 19.6506L3.65842 21.1602L25.614 21.1602L25.614 19.6506L26.831 19.6506L26.831 16.6294L28.0597 16.6294L28.0597 7.55997L26.831 7.55997L26.831 4.52897L25.614 4.52897L25.614 3.01937L3.65842 3.01937Z" fill="#ED548C"/>
<path fill-rule="evenodd" clip-rule="evenodd" d="M8.53632 19.6504L9.75579 19.6504L9.76587 19.6504L10.9753 19.6504L10.9853 19.6504L12.1947 19.6504L12.2048 19.6504L13.4151 19.6504L13.4243 19.6504L14.6463 19.6504L14.6463 18.127L13.4243 18.127L13.4151 18.127L12.2048 18.127L12.1947 18.127L10.9853 18.127L10.9753 18.127L9.76587 18.127L9.75579 18.127L8.53632 18.127L8.53632 19.6504Z" fill="#131A31"/>
<path fill-rule="evenodd" clip-rule="evenodd" d="M25.6115 18.1272L24.392 18.1272L24.392 19.6506L25.6115 19.6506L25.6115 21.1602L26.8411 21.1602L26.8411 19.6388L25.6216 19.6388L25.6216 18.138L26.8411 18.138L26.8411 16.6166L25.6115 16.6166L25.6115 18.1272Z" fill="#131A31"/>
<path d="M26.831 16.6174L26.831 19.6504L28.0622 19.6504L28.0622 16.6174L26.831 16.6174Z" fill="#131A31"/>
<path fill-rule="evenodd" clip-rule="evenodd" d="M25.6115 9.06845L25.6115 15.1187L26.8411 15.1187L26.8411 13.609L28.0622 13.609L28.0622 10.578L26.8411 10.5781L26.8411 9.06845L25.6115 9.06845Z" fill="#131A31"/>
<path fill-rule="evenodd" clip-rule="evenodd" d="M4.88044 6.03841L3.66096 6.03841L3.66096 7.54802L2.44148 7.54802L2.44148 9.06843L2.43896 9.06843L2.43896 16.6282L3.65844 16.6282L3.65844 18.1378L4.87792 18.1378L4.87792 19.6504L6.09739 19.6504L6.10747 19.6504L7.32695 19.6504L7.32695 9.06941L7.32947 9.06941L7.32947 4.52881L6.10999 4.52881L6.09991 4.52881L4.88044 4.52881L4.88044 6.03841Z" fill="#131A31"/>
<path fill-rule="evenodd" clip-rule="evenodd" d="M8.53888 6.05029L9.75836 6.05029L9.76843 6.05029L10.9778 6.05029L10.9879 6.05029L12.1973 6.05029L12.2074 6.05029L13.4168 6.05029L13.4269 6.05029L14.6489 6.05029L14.6489 4.5289L13.4269 4.5289L13.4168 4.5289L12.2074 4.5289L12.1973 4.5289L10.9879 4.5289L10.9778 4.5289L9.76843 4.5289L9.75836 4.5289L8.53888 4.5289L8.53888 6.05029Z" fill="#131A31"/>
<path fill-rule="evenodd" clip-rule="evenodd" d="M15.8582 9.06941L15.8557 9.06941L15.8557 19.6504L17.0752 19.6504L17.0853 19.6504L18.3047 19.6504L18.3047 18.1378L19.5242 18.1378L19.5242 16.6282L20.7437 16.6282L20.7437 9.06941L20.7462 9.06941L20.7462 7.54802L19.5267 7.54802L19.5267 6.03841L18.3073 6.03841L18.3073 4.52881L17.0878 4.52881L17.0777 4.52881L15.8582 4.52881L15.8582 9.06941Z" fill="#131A31"/>
<path d="M28.0521 7.55999L28.0521 16.6284L29.2817 16.6284L29.2817 7.55999L28.0521 7.55999Z" fill="#131A31"/>
<path fill-rule="evenodd" clip-rule="evenodd" d="M6.0999 1.50961L4.8905 1.50961L4.88042 1.50961L3.66095 1.50961L3.66095 3.01921L2.44147 3.01921L2.44147 4.52881L1.22199 4.52881L1.222 6.03841L0.0025189 6.03841L0.00251901 9.06843L-5.64438e-07 9.06843L-2.25665e-07 18.1378L1.21948 18.1378L1.21948 19.6504L2.43895 19.6504L2.43895 21.16L3.65843 21.16L3.65843 22.6696L4.8779 22.6696L4.88798 22.6696L6.09738 22.6696L6.09738 24.1792L7.31686 24.1792L7.32693 24.1792L8.53633 24.1792L8.54641 24.1792L9.76589 24.1792L9.76589 22.6696L10.9753 22.6696L10.9854 22.6696L12.1948 22.6696L12.2048 22.6696L13.4151 22.6696L13.4243 22.6696L14.6362 22.6696L14.6463 22.6696L15.8557 22.6696L15.8658 22.6696L17.0752 22.6696L17.0853 22.6696L18.2947 22.6696L18.3047 22.6696L19.5141 22.6696L19.5242 22.6696L20.7336 22.6696L20.7336 24.1792L21.9531 24.1792L21.9632 24.1792L24.4021 24.1792L24.4021 22.6696L25.6216 22.6696L25.6216 21.1482L24.4021 21.1482L24.392 21.1482L21.9632 21.1482L21.9531 21.1482L20.7437 21.1482L20.7336 21.1482L19.5242 21.1482L19.5141 21.1482L18.3047 21.1482L18.2947 21.1482L17.0853 21.1482L17.0752 21.1482L15.8658 21.1482L15.8557 21.1482L14.6463 21.1482L14.6362 21.1482L13.4243 21.1482L13.4151 21.1482L12.2048 21.1482L12.1948 21.1482L10.9854 21.1482L10.9753 21.1482L9.76589 21.1482L9.75581 21.1482L8.54641 21.1482L8.53633 21.1482L7.32693 21.1482L7.31686 21.1482L6.10746 21.1482L6.09738 21.1482L4.88798 21.1482L4.8779 21.1482L3.66851 21.1482L3.66851 19.6386L2.44903 19.6386L2.44903 18.127L1.22955 18.127L1.22955 9.06941L1.23207 9.06941L1.23207 6.05021L2.45155 6.05021L2.45155 4.5406L3.67103 4.5406L3.67103 3.031L4.88042 3.031L4.8905 3.031L6.0999 3.031L6.10998 3.031L7.31938 3.031L7.32945 3.031L8.53885 3.031L8.54893 3.031L9.75833 3.031L9.76841 3.031L10.9778 3.031L10.9879 3.031L12.1973 3.031L12.2074 3.031L13.4168 3.031L13.4268 3.031L14.6388 3.031L14.6488 3.031L15.8582 3.031L15.8683 3.031L17.0777 3.031L17.0878 3.031L18.2972 3.031L18.3073 3.031L19.5167 3.031L19.5267 3.031L20.7361 3.031L20.7462 3.031L21.9556 3.031L21.9657 3.031L23.1751 3.031L23.1852 3.031L24.3946 3.031L24.4046 3.031L25.6241 3.031L25.6241 1.5096L24.4046 1.5096L24.4046 6.59012e-07L23.1852 7.2139e-07L23.1751 7.21905e-07L21.9657 7.83768e-07L21.9556 7.84283e-07L20.7361 8.46662e-07L20.7361 1.5096L19.5267 1.5096L19.5167 1.5096L18.3073 1.5096L18.2972 1.5096L17.0878 1.5096L17.0777 1.5096L15.8683 1.5096L15.8582 1.5096L14.6488 1.5096L14.6388 1.5096L13.4268 1.5096L13.4168 1.5096L12.2074 1.5096L12.1973 1.5096L10.9879 1.5096L10.9778 1.5096L9.76841 1.5096L9.76841 1.40768e-06L8.54893 1.47006e-06L8.53885 1.47057e-06L7.32945 1.53244e-06L7.31938 1.53295e-06L6.0999 1.59533e-06L6.0999 1.50961Z" fill="#131A31"/>
<path fill-rule="evenodd" clip-rule="evenodd" d="M25.6141 4.52857L24.3946 4.52857L24.3946 6.04997L25.6141 6.04997L25.6141 7.55957L26.8436 7.55957L26.8436 6.03817L25.6241 6.03817L25.6241 4.54036L26.8436 4.54036L26.8436 3.01897L25.6141 3.01897L25.6141 4.52857Z" fill="#131A31"/>
<path d="M26.8326 4.52857L26.8326 7.55957L28.0639 7.55957L28.0639 4.52857L26.8326 4.52857Z" fill="#131A31"/>
</svg>
