<?xml version="1.0" encoding="UTF-8"?>
<svg id="Capa_2" data-name="Capa 2" xmlns="http://www.w3.org/2000/svg" viewBox="0 0 678.23 678.27">
  <defs>
    <style>
      .cls-1, .cls-2 {
        fill: #fff;
      }

      .cls-2 {
        fill-rule: evenodd;
      }
    </style>
  </defs>
  <g id="Capa_1-2" data-name="Capa 1">
    <g>
      <polygon class="cls-2" points="81.39 379.83 81.39 406.96 81.39 434.09 81.39 439.82 81.39 461.22 81.39 488.38 81.39 515.51 108.52 515.51 108.52 542.6 298.42 542.6 298.42 515.51 298.42 515.47 298.42 488.38 298.42 477.27 298.42 461.25 298.42 434.09 189.91 434.09 189.91 461.25 162.78 461.25 162.78 488.38 135.65 488.38 135.65 515.47 108.52 515.47 108.52 488.38 135.65 488.38 135.65 461.22 162.78 461.22 162.78 434.09 162.78 406.96 162.78 379.83 162.78 352.69 162.78 349.19 162.78 339.12 162.78 325.56 162.78 298.42 162.78 271.29 135.65 271.29 135.65 298.42 108.52 298.42 108.52 325.56 54.26 325.56 54.26 352.69 81.39 352.69 81.39 379.83"/>
      <polygon class="cls-2" points="27.13 596.83 27.13 569.87 27.13 568.79 27.13 542.87 27.13 541.79 27.13 515.88 27.13 514.8 27.13 488.89 27.13 487.81 27.13 461.89 27.13 460.81 27.13 434.9 27.13 433.82 27.13 407.9 27.13 406.82 27.13 379.83 0 379.83 0 406.82 0 407.9 0 433.82 0 434.9 0 460.81 0 461.89 0 487.81 0 488.89 0 514.8 0 515.88 0 541.79 0 542.87 0 568.79 0 569.87 0 596.86 27.13 596.86 27.13 623.96 54.26 623.96 54.26 596.83 27.13 596.83"/>
      <rect class="cls-1" x="27.13" y="352.7" width="27.13" height="27.13"/>
      <rect class="cls-1" x="623.97" y="352.7" width="27.13" height="27.13"/>
      <rect class="cls-1" x="596.84" y="379.83" width="27.13" height="27.13"/>
      <polygon class="cls-2" points="651.1 379.83 651.1 406.82 651.1 406.96 623.97 406.96 623.97 434.09 651.1 434.09 651.1 434.9 651.1 460.81 651.1 461.89 651.1 487.81 651.1 488.35 623.97 488.35 623.97 515.47 651.1 515.47 651.1 515.88 651.1 541.79 651.1 542.6 623.97 542.6 623.97 569.73 651.1 569.73 651.1 569.87 651.1 596.86 651.1 623.96 569.72 623.96 569.72 596.83 488.33 596.83 488.33 623.96 217.03 623.96 217.03 596.83 135.65 596.83 135.65 623.96 54.26 623.96 54.26 651.09 135.65 651.09 135.65 678.27 217.03 678.27 217.03 651.09 488.33 651.09 488.33 678.27 569.72 678.27 569.72 651.09 651.1 651.09 651.1 623.99 678.23 623.99 678.23 596.86 678.23 569.87 678.23 568.79 678.23 542.87 678.23 541.79 678.23 515.88 678.23 514.8 678.23 488.89 678.23 487.81 678.23 461.89 678.23 460.81 678.23 434.9 678.23 433.82 678.23 407.9 678.23 406.82 678.23 379.83 651.1 379.83"/>
      <rect class="cls-1" x="596.85" y="515.47" width="27.13" height="27.13"/>
      <path class="cls-2" d="M515.46,325.57v-27.13h-27.13v-27.13h-27.13v189.91h27.13v27.13h-27.13v-27.13h-27.13v-27.13h-108.52v81.39h0v27.13h189.91v-27.1h27.13v-162.81h81.39v-27.13h-108.52ZM515.46,515.47h-27.13v-27.1h27.13v27.1Z"/>
      <path class="cls-2" d="M162.73,189.92h27.13v27.13h0s27.13,0,27.13,0v27.1h-54.22v27.13l108.48.03v27.13h27.13v27.13h27.13v-27.13h27.13v-27.12l108.53-.04v-27.13h-54.27v-27.1h0s27.13,0,27.13,0v-27.13h27.13v-27.15h27.13V54.26h-27.13v-27.12h-27.13V0h-81.39v27.13h-27.13v27.13h-27.13v-27.13h-27.13V0h-81.39v27.13h-27.13v27.13h0s-27.13,0-27.13,0v108.52h0s27.13.01,27.13.01v27.13ZM162.73,108.53v-27.13h27.13v-27.13h0s27.13,0,27.13,0v-27.13h27.13v27.13h-27.13v27.13h-27.13v27.13h-27.13Z"/>
    </g>
  </g>
</svg>